<svg width="24" height="24" viewBox="0 0 24 24" fill="none" xmlns="http://www.w3.org/2000/svg">
<path d="M4.31915 4.92308C4.31915 3.94939 4.6079 2.99756 5.14891 2.18796C5.68991 1.37837 6.45886 0.747365 7.35851 0.374749C8.25816 0.00213308 9.24811 -0.0953602 10.2032 0.0945977C11.1582 0.284556 12.0355 0.753433 12.7241 1.44194C13.4127 2.13044 13.8816 3.00765 14.0716 3.96263C14.2615 4.91762 14.164 5.90748 13.7914 6.80706C13.4187 7.70663 12.7877 8.47551 11.978 9.01647C11.1683 9.55742 10.2164 9.84616 9.24265 9.84616C7.93686 9.84616 6.68454 9.32748 5.76121 8.40422C4.83787 7.48096 4.31915 6.22876 4.31915 4.92308ZM16.687 14.3754C16.6709 14.2617 16.6156 14.1572 16.5307 14.08C15.8846 13.475 15.1234 13.0063 14.2923 12.7018C13.4612 12.3973 12.5773 12.2633 11.6933 12.3077H6.76982C1.77246 12.3077 0 15.9631 0 19.1015C0 21.9077 1.48936 23.3846 4.30807 23.3846H10.7086C10.7572 23.386 10.8054 23.3768 10.8501 23.3577C10.8947 23.3386 10.9346 23.3099 10.9671 23.2738C11.0356 23.2024 11.0751 23.1081 11.0779 23.0092V20.9231C11.0783 20.4336 11.2731 19.9644 11.6195 19.6185L16.5799 14.6338C16.6471 14.5644 16.6854 14.472 16.687 14.3754ZM12.9242 20.9231V24H16.0014L21.5883 18.4382L18.4878 15.3378L12.9242 20.9231ZM23.6427 14.6597L22.2641 13.2812C22.0335 13.052 21.7215 12.9233 21.3963 12.9233C21.0711 12.9233 20.7592 13.052 20.5286 13.2812L19.3481 14.4751L22.4487 17.5754L23.6427 16.3951C23.8716 16.1645 24 15.8529 24 15.528C24 15.2031 23.8716 14.8902 23.6427 14.6597Z" fill="#004BFF"/>
</svg>
