<svg width="24" height="24" viewBox="0 0 24 24" fill="none" xmlns="http://www.w3.org/2000/svg">
<path d="M5.94994 9.5992C6.4124 9.5992 6.7873 9.24103 6.7873 8.7992C6.7873 8.35737 6.4124 7.9992 5.94994 7.9992C5.48748 7.9992 5.11259 8.35737 5.11259 8.7992C5.11259 9.24103 5.48748 9.5992 5.94994 9.5992Z" fill="#004BFF"/>
<path d="M12.2745 9.5992C12.737 9.5992 13.1119 9.24103 13.1119 8.7992C13.1119 8.35737 12.737 7.9992 12.2745 7.9992C11.812 7.9992 11.4371 8.35737 11.4371 8.7992C11.4371 9.24103 11.812 9.5992 12.2745 9.5992Z" fill="#004BFF"/>
<path d="M16.4638 10.4C12.7643 10.4 9.76494 13.2656 9.76494 16.8C9.76494 20.3344 12.7643 23.2 16.4638 23.2C20.1632 23.2 23.1626 20.3344 23.1626 16.8C23.1626 13.2656 20.1632 10.4 16.4638 10.4ZM20.4806 15.6224L17.1797 18.7752C16.7962 19.1416 16.2871 19.3432 15.7445 19.3432C15.2019 19.3432 14.6928 19.1416 14.3093 18.7752L13.3765 17.884C13.0491 17.572 13.0491 17.0648 13.3765 16.7528C13.7039 16.4408 14.2339 16.4408 14.5605 16.7528L15.4933 17.644C15.6758 17.8184 15.8165 17.8176 15.9957 17.644L19.2966 14.4904C19.624 14.1784 20.154 14.1784 20.4806 14.4904C20.8072 14.8032 20.8072 15.3104 20.4806 15.6224Z" fill="#004BFF"/>
<path d="M10.1049 23.2C10.1049 23.6416 9.72977 24 9.26755 24H3.68741C2.65076 24 1.65598 23.58 0.959297 22.8472C0.261779 22.1144 -0.0815366 21.1288 0.0164341 20.1424L1.20297 8.2432C1.35202 6.7456 2.66918 5.6024 4.24341 5.6024H13.6084C14.8058 5.6024 15.8458 6.252 16.3457 7.22C16.5969 7.7064 16.2201 8.2824 15.6541 8.3336H15.6482C15.3174 8.364 14.9892 8.2096 14.8402 7.9256C14.6132 7.492 14.146 7.2024 13.6076 7.2024H4.24341C3.53249 7.2024 2.93797 7.7184 2.87014 8.3952L1.68361 20.2952C1.62918 20.8424 1.81173 21.3664 2.19859 21.7728C2.58461 22.1784 3.11382 22.4016 3.68741 22.4016H9.26755C9.72977 22.4016 10.1049 22.76 10.1049 23.2016V23.2Z" fill="#004BFF"/>
<path d="M16.4638 24C12.3088 24 8.92758 20.7704 8.92758 16.8C8.92758 12.8296 12.3088 9.6 16.4638 9.6C20.6188 9.6 24 12.8296 24 16.8C24 20.7704 20.6188 24 16.4638 24ZM16.4638 11.2C13.2316 11.2 10.6023 13.7128 10.6023 16.8C10.6023 19.8872 13.2316 22.4 16.4638 22.4C19.696 22.4 22.3253 19.8872 22.3253 16.8C22.3253 13.7128 19.696 11.2 16.4638 11.2Z" fill="#004BFF"/>
<path d="M13.95 6.4016H12.2753V4.8C12.2753 3.0352 10.7731 1.6 8.92591 1.6C7.0787 1.6 5.57648 3.0352 5.57648 4.8V6.4016H3.90177V4.8C3.90177 2.1528 6.15509 0 8.92591 0C11.6967 0 13.95 2.1528 13.95 4.8V6.4016Z" fill="#004BFF"/>
</svg>
