<svg width="24" height="24" viewBox="0 0 24 24" fill="none" xmlns="http://www.w3.org/2000/svg">
<path d="M13.8697 5.335L16.9555 2.77434C17.0434 2.70141 17.1444 2.64716 17.2525 2.6147C17.3607 2.58224 17.474 2.5722 17.5859 2.58516C17.6979 2.59812 17.8062 2.63382 17.9048 2.69023C18.0034 2.74663 18.0904 2.82263 18.1606 2.91388L20.0275 5.335H13.8697ZM5.09838 3.27563C5.04141 3.09888 4.9323 2.94518 4.78649 2.83624C4.64067 2.72731 4.46552 2.66865 4.2858 2.66857H0.857159C0.629826 2.66857 0.411805 2.76222 0.251056 2.9289C0.0903075 3.09558 0 3.32166 0 3.55738C0 3.79311 0.0903075 4.01918 0.251056 4.18587C0.411805 4.35255 0.629826 4.44619 0.857159 4.44619H3.66778L3.95408 5.335H5.76182L5.09838 3.27563ZM6.96442 5.335H11.1208L14.9686 2.14862L14.3351 0.548762C14.2486 0.33197 14.0828 0.159472 13.8741 0.0688934C13.6653 -0.0216853 13.4305 -0.0229949 13.2208 0.0652502L6.87785 2.76723C6.66862 2.85683 6.50207 3.02862 6.41455 3.24509C6.32703 3.46157 6.32564 3.70515 6.41069 3.92268L6.96442 5.335ZM23.9096 8.39873L19.6238 17.2868C19.5527 17.4344 19.4433 17.5586 19.308 17.6454C19.1726 17.7322 19.0166 17.7782 18.8575 17.7783H8.57159C8.39162 17.7784 8.2162 17.7197 8.0702 17.6106C7.92419 17.5014 7.81502 17.3474 7.75815 17.1704L4.90381 8.28229C4.86089 8.14868 4.84921 8.0064 4.86972 7.86718C4.89024 7.72796 4.94236 7.59579 5.0218 7.48156C5.10124 7.36733 5.20573 7.27431 5.32664 7.21016C5.44755 7.14602 5.58143 7.11259 5.71725 7.11262H23.1433C23.2894 7.1127 23.433 7.15148 23.5605 7.22527C23.688 7.29906 23.7953 7.40543 23.8721 7.53427C23.9488 7.6631 23.9926 7.81015 23.9991 7.96144C24.0057 8.11273 23.9749 8.26325 23.9096 8.39873ZM17.1432 12.4455C17.1432 12.2097 17.0529 11.9837 16.8921 11.817C16.7314 11.6503 16.5134 11.5567 16.286 11.5567H11.1431C10.9157 11.5567 10.6977 11.6503 10.537 11.817C10.3762 11.9837 10.2859 12.2097 10.2859 12.4455C10.2859 12.6812 10.3762 12.9073 10.537 13.074C10.6977 13.2406 10.9157 13.3343 11.1431 13.3343H16.286C16.5134 13.3343 16.7314 13.2406 16.8921 13.074C17.0529 12.9073 17.1432 12.6812 17.1432 12.4455ZM9.42875 18.6671C8.92016 18.6671 8.42299 18.8235 8.00011 19.1165C7.57724 19.4095 7.24764 19.8259 7.05302 20.3132C6.85839 20.8004 6.80746 21.3365 6.90668 21.8538C7.0059 22.371 7.25081 22.8461 7.61044 23.219C7.97007 23.5919 8.42826 23.8459 8.92708 23.9488C9.4259 24.0516 9.94294 23.9988 10.4128 23.797C10.8827 23.5952 11.2843 23.2534 11.5669 22.815C11.8494 22.3765 12.0002 21.8609 12.0002 21.3336C12.0002 20.6264 11.7293 19.9482 11.2471 19.4481C10.7648 18.9481 10.1107 18.6671 9.42875 18.6671ZM17.1432 18.6671C16.6346 18.6671 16.1374 18.8235 15.7145 19.1165C15.2917 19.4095 14.9621 19.8259 14.7674 20.3132C14.5728 20.8004 14.5219 21.3365 14.6211 21.8538C14.7203 22.371 14.9652 22.8461 15.3249 23.219C15.6845 23.5919 16.1427 23.8459 16.6415 23.9488C17.1403 24.0516 17.6574 23.9988 18.1272 23.797C18.5971 23.5952 18.9987 23.2534 19.2813 22.815C19.5638 22.3765 19.7147 21.8609 19.7147 21.3336C19.7147 20.6264 19.4437 19.9482 18.9615 19.4481C18.4792 18.9481 17.8252 18.6671 17.1432 18.6671Z" fill="#004BFF"/>
</svg>
