<svg width="23" height="24" viewBox="0 0 23 24" fill="none" xmlns="http://www.w3.org/2000/svg">
<path d="M22.6382 9.12717C22.6091 9.0146 22.5582 8.90885 22.4883 8.81597C22.4184 8.72308 22.3309 8.64488 22.2307 8.58582C22.1306 8.52675 22.0198 8.48799 21.9047 8.47175C21.7896 8.4555 21.6724 8.46209 21.5598 8.49113C21.4473 8.52017 21.3415 8.5711 21.2486 8.64101C21.1558 8.71092 21.0776 8.79844 21.0185 8.89857C20.9594 8.99871 20.9207 9.10949 20.9044 9.22461C20.8882 9.33972 20.8948 9.45691 20.9238 9.56948C21.4962 11.7856 21.2691 14.1325 20.2824 16.1977C19.2958 18.2629 17.6127 19.9142 15.5291 20.8614C13.4454 21.8085 11.0946 21.9909 8.88984 21.3764C6.68507 20.762 4.76745 19.39 3.47407 17.5017C2.18069 15.6133 1.59433 13.3295 1.81807 11.0517C2.04181 8.77386 3.06132 6.64779 4.69739 5.0472C6.33347 3.44662 8.48139 2.47397 10.7636 2.30023C13.0458 2.12649 15.3162 2.76278 17.1757 4.09725C17.2701 4.16509 17.3769 4.21368 17.4901 4.24024C17.6032 4.26679 17.7205 4.2708 17.8352 4.25203C17.95 4.23326 18.0598 4.19208 18.1586 4.13084C18.2574 4.0696 18.3432 3.9895 18.4111 3.89511C18.4789 3.80073 18.5275 3.6939 18.5541 3.58074C18.5806 3.46757 18.5846 3.35028 18.5658 3.23557C18.5471 3.12085 18.5059 3.01096 18.4447 2.91216C18.3834 2.81336 18.3033 2.72759 18.2089 2.65975C16.1131 1.15439 13.572 0.397623 10.9941 0.511139C8.41621 0.624655 5.95141 1.60186 3.99606 3.28561C2.04071 4.96935 0.708453 7.26179 0.213529 9.79427C-0.281395 12.3267 0.0897763 14.9521 1.26736 17.2481C2.44493 19.5441 4.36049 21.3774 6.70597 22.4531C9.05144 23.5288 11.6905 23.7844 14.1989 23.1788C16.7072 22.5732 18.939 21.1417 20.5353 19.1143C22.1316 17.087 22.9997 14.5817 23 12.0013C23.0004 11.0319 22.8789 10.0662 22.6382 9.12717Z" fill="#004BFF"/>
<path d="M6.52051 10.2949C6.33131 10.2192 6.1218 10.2112 5.92737 10.2722C5.73295 10.3331 5.56553 10.4594 5.45342 10.6295C5.34131 10.7997 5.29137 11.0033 5.31204 11.206C5.33272 11.4087 5.42274 11.5981 5.5669 11.7421L9.98997 16.1652C10.1559 16.331 10.3808 16.4242 10.6154 16.4242C10.85 16.4242 11.0749 16.331 11.2408 16.1652L20.9716 6.4344C21.1351 6.27799 21.2325 6.06483 21.2437 5.83879C21.2549 5.61275 21.179 5.39102 21.0317 5.21922C20.8844 5.04742 20.6768 4.93862 20.4517 4.9152C20.2266 4.89178 20.0011 4.95553 19.8216 5.09332L10.4898 11.8827L6.52051 10.2949Z" fill="#004BFF"/>
</svg>
