<svg width="32" height="20" viewBox="0 0 32 20" fill="none" xmlns="http://www.w3.org/2000/svg">
<path d="M31.6007 9.0495C31.6007 9.0495 22.9363 0 16.0009 0C9.06557 0 0.401081 9.0495 0.401081 9.0495C-0.131351 9.57426 -0.136031 10.4356 0.401081 10.9504C0.401081 10.9504 9.06557 20 16.0009 20C22.9363 20 31.6007 10.9504 31.6007 10.9504C32.1284 10.4257 32.1378 9.56934 31.6007 9.0495ZM16.0669 17.2871C12.2552 17.2871 9.15981 14.0395 9.15981 10.0297C9.15981 6.01987 12.2506 2.77228 16.0669 2.77228C19.8832 2.77228 22.9739 6.02472 22.9739 10.0297C22.9739 14.0347 19.8785 17.2871 16.0669 17.2871Z" fill="#004BFF"/>
<path d="M15.9868 5.33663C13.565 5.33663 11.6003 7.41086 11.6003 9.9604C11.6003 12.5099 13.565 14.5842 15.9868 14.5842C18.4085 14.5842 20.3732 12.5099 20.3732 9.9604C20.3732 7.41092 18.4085 5.33663 15.9868 5.33663ZM17.6405 9.97528C16.8914 9.97528 16.2789 9.33165 16.2789 8.53465C16.2789 7.73766 16.8914 7.09409 17.6405 7.09409C18.3896 7.09409 19.0021 7.73766 19.0021 8.53465C19.0021 9.33165 18.399 9.97528 17.6405 9.97528Z" fill="#004BFF"/>
</svg>
