<svg width="24" height="24" viewBox="0 0 24 24" fill="none" xmlns="http://www.w3.org/2000/svg">
<path fill-rule="evenodd" clip-rule="evenodd" d="M5 0C2.23858 0 0 2.23858 0 5V19C0 21.7614 2.23858 24 5 24H19C21.7614 24 24 21.7614 24 19V5C24 2.23858 21.7614 0 19 0H5ZM5.14449 17.4374C5.04406 17.4789 4.9364 17.5001 4.8277 17.5C4.66402 17.5 4.50401 17.4516 4.3679 17.361C4.2318 17.2703 4.12572 17.1415 4.06308 16.9907C4.00044 16.84 3.98406 16.6741 4.01599 16.514C4.04792 16.354 4.12675 16.207 4.2425 16.0916L9.48386 10.8666C9.56071 10.79 9.65195 10.7292 9.75236 10.6878C9.85277 10.6463 9.96039 10.625 10.0691 10.625C10.1778 10.625 10.2854 10.6463 10.3858 10.6878C10.4862 10.7292 10.5774 10.79 10.6543 10.8666L12.5518 12.7583L17.1745 8.14999H15.3104C15.091 8.14999 14.8805 8.06307 14.7252 7.90835C14.57 7.75363 14.4829 7.54379 14.4829 7.32499C14.4829 7.10619 14.57 6.89634 14.7252 6.74163C14.8805 6.58691 15.091 6.49999 15.3104 6.49999H19.1725C19.392 6.49999 19.6025 6.58691 19.7577 6.74163C19.9129 6.89634 20.0001 7.10619 20.0001 7.32499L19.9995 11.175C19.9995 11.3938 19.9123 11.6036 19.7571 11.7584C19.6019 11.9131 19.3914 12 19.1719 12C18.9524 12 18.7419 11.9131 18.5867 11.7584C18.4315 11.6036 18.3443 11.3938 18.3443 11.175L18.3446 9.31705L13.137 14.5084C13.0602 14.585 12.9689 14.6458 12.8685 14.6872C12.7681 14.7287 12.6605 14.75 12.5518 14.75C12.4431 14.75 12.3355 14.7287 12.2351 14.6872C12.1347 14.6458 12.0435 14.585 11.9666 14.5084L10.0691 12.6167L5.41291 17.2584C5.33614 17.3351 5.24492 17.3959 5.14449 17.4374Z" fill="#004BFF"/>
</svg>
