<svg width="24" height="24" viewBox="0 0 24 24" fill="none" xmlns="http://www.w3.org/2000/svg">
<path fill-rule="evenodd" clip-rule="evenodd" d="M6.76923 0C3.03069 0 0 3.03069 0 6.76923V17.2308C0 20.9693 3.03069 24 6.76923 24H17.2308C20.9693 24 24 20.9693 24 17.2308V6.76923C24 3.03069 20.9693 0 17.2308 0H6.76923ZM10.7485 12.2916L8.36015 11.403C7.9876 11.2644 7.80464 10.828 7.95248 10.4306C8.01021 10.2755 8.11541 10.14 8.2486 10.0483L14.8883 4.98812C15.1003 4.84179 15.3429 4.8086 15.5548 4.88746C15.9274 5.02606 16.1103 5.46248 15.9619 5.85967C15.9557 5.8764 15.9355 5.92733 15.9277 5.94345L13.8096 10.1475L16.7327 11.235C17.1052 11.3736 17.2882 11.8101 17.1403 12.2074C17.0826 12.3626 16.9774 12.4981 16.8442 12.5897L9.4428 18.0297C9.23724 18.1719 8.99467 18.2051 8.78271 18.1262C8.41016 17.9876 8.2272 17.5512 8.37505 17.1538C8.38063 17.1388 8.39769 17.0946 8.40544 17.0804L10.7485 12.2916Z" fill="#004BFF"/>
</svg>
