<svg width="24" height="24" viewBox="0 0 24 24" fill="none" xmlns="http://www.w3.org/2000/svg">
<path d="M20.6057 11.85C19.5626 11.8508 18.5506 11.479 17.7371 10.7962C16.9232 11.4782 15.9114 11.8498 14.8685 11.8498C13.8256 11.8498 12.8138 11.4782 11.9999 10.7962C11.1859 11.4782 10.1741 11.8498 9.13124 11.8498C8.08833 11.8498 7.07654 11.4782 6.26262 10.7962C5.7064 11.2628 5.05368 11.5872 4.35646 11.7434C3.65923 11.8997 2.93675 11.8835 2.24655 11.6962V21C2.24751 21.7954 2.55004 22.5578 3.08781 23.1202C3.62558 23.6826 4.35468 23.999 5.1152 24H6.26262V15.6C6.26262 15.4409 6.32307 15.2883 6.43067 15.1757C6.53826 15.0632 6.6842 15 6.83636 15H10.8524C11.0046 15 11.1505 15.0632 11.2581 15.1757C11.3657 15.2883 11.4261 15.4409 11.4261 15.6V24H18.8845C19.645 23.999 20.3741 23.6826 20.9119 23.1202C21.4496 22.5578 21.7522 21.7954 21.7531 21V11.6962C21.3783 11.7977 20.9928 11.8494 20.6057 11.85ZM17.7371 18C17.7371 18.1592 17.6766 18.3118 17.569 18.4243C17.4614 18.5368 17.3155 18.6 17.1633 18.6H14.8684C14.7163 18.6 14.5703 18.5368 14.4627 18.4242C14.3552 18.3117 14.2947 18.1591 14.2947 18V15.6C14.2947 15.4409 14.3552 15.2883 14.4627 15.1757C14.5703 15.0632 14.7163 15 14.8684 15H17.1633C17.3155 15 17.4614 15.0632 17.569 15.1757C17.6766 15.2883 17.7371 15.4409 17.7371 15.6V18Z" fill="#004BFF"/>
<path d="M12.5736 9.72789C13.2032 10.3215 14.0208 10.65 14.8685 10.65C15.7161 10.65 16.5337 10.3215 17.1633 9.72789V6.42039C17.1634 6.17563 17.143 5.93135 17.1023 5.69031L16.1422 0H12.5736V9.72789Z" fill="#004BFF"/>
<path d="M6.83636 6.42039V9.72789C7.46597 10.3215 8.28357 10.65 9.13124 10.65C9.97891 10.65 10.7965 10.3215 11.4261 9.72789V0H7.85755L6.89746 5.69031C6.85678 5.93134 6.83634 6.17563 6.83636 6.42039Z" fill="#004BFF"/>
<path d="M23.8132 6.28156H23.813L21.995 1.17248C21.8717 0.828898 21.6514 0.532698 21.3632 0.323262C21.0751 0.113825 20.7328 0.00107402 20.3819 0H17.3073L18.2325 5.48174C18.2847 5.79166 18.3109 6.10575 18.3109 6.42044V9.72795C18.7357 10.1274 19.2489 10.4099 19.8043 10.5499C20.3597 10.6898 20.9397 10.6829 21.4918 10.5296C22.044 10.3763 22.5509 10.0815 22.9668 9.67187C23.3826 9.26226 23.6944 8.75072 23.8737 8.18349C24.0609 7.59342 24.0393 6.91786 23.8132 6.28156Z" fill="#004BFF"/>
<path d="M5.68894 6.42039C5.68893 6.10571 5.71517 5.79164 5.76736 5.48174L6.69248 0H3.61757C3.26669 0.00108112 2.92444 0.113829 2.63631 0.323254C2.34819 0.53268 2.12784 0.828861 2.00457 1.17242L0.186586 6.2815C-0.0393166 6.91786 -0.0608312 7.59342 0.126077 8.18315C0.305395 8.75044 0.617075 9.26205 1.03294 9.67173C1.4488 10.0814 1.95574 10.3762 2.50792 10.5296C3.0601 10.6829 3.64012 10.6899 4.19553 10.5499C4.75095 10.41 5.26425 10.1274 5.68904 9.72789L5.68894 6.42039Z" fill="#004BFF"/>
</svg>
