<svg width="199" height="51" viewBox="0 0 199 51" fill="none" xmlns="http://www.w3.org/2000/svg">
<path d="M52.782 50L50.455 40.9H51.846L53.549 47.5755L55.2455 40.9H56.474L58.177 47.5755L59.88 40.9H61.271L58.957 50H57.4035L55.863 43.9745L54.3225 50H52.782ZM64.951 50.169C64.353 50.169 63.807 50.0152 63.313 49.7075C62.8233 49.3998 62.4312 48.9882 62.1365 48.4725C61.8462 47.9525 61.701 47.3783 61.701 46.75C61.701 46.2733 61.7855 45.8292 61.9545 45.4175C62.1235 45.0015 62.3553 44.6375 62.65 44.3255C62.949 44.0092 63.2957 43.7622 63.69 43.5845C64.0843 43.4068 64.5047 43.318 64.951 43.318C65.549 43.318 66.0928 43.4718 66.5825 43.7795C67.0765 44.0872 67.4687 44.501 67.759 45.021C68.0537 45.541 68.201 46.1173 68.201 46.75C68.201 47.2223 68.1165 47.6643 67.9475 48.076C67.7785 48.4877 67.5445 48.8517 67.2455 49.168C66.9508 49.48 66.6063 49.7248 66.212 49.9025C65.822 50.0802 65.4017 50.169 64.951 50.169ZM64.951 48.817C65.3107 48.817 65.6335 48.7217 65.9195 48.531C66.2055 48.3403 66.4308 48.089 66.5955 47.777C66.7645 47.4607 66.849 47.1183 66.849 46.75C66.849 46.373 66.7623 46.0263 66.589 45.71C66.42 45.3937 66.1925 45.1423 65.9065 44.956C65.6205 44.7653 65.302 44.67 64.951 44.67C64.5957 44.67 64.2728 44.7653 63.9825 44.956C63.6965 45.1467 63.469 45.4002 63.3 45.7165C63.1353 46.0328 63.053 46.3773 63.053 46.75C63.053 47.1357 63.1397 47.4845 63.313 47.7965C63.4863 48.1085 63.716 48.3577 64.002 48.544C64.2923 48.726 64.6087 48.817 64.951 48.817ZM72.6185 50.169C72.0205 50.169 71.4745 50.0152 70.9805 49.7075C70.4908 49.3998 70.0986 48.9882 69.804 48.4725C69.5136 47.9525 69.3685 47.3783 69.3685 46.75C69.3685 46.2733 69.453 45.8292 69.622 45.4175C69.791 45.0015 70.0228 44.6375 70.3175 44.3255C70.6165 44.0092 70.9631 43.7622 71.3575 43.5845C71.7518 43.4068 72.1721 43.318 72.6185 43.318C73.2165 43.318 73.7603 43.4718 74.25 43.7795C74.744 44.0872 75.1361 44.501 75.4265 45.021C75.7211 45.541 75.8685 46.1173 75.8685 46.75C75.8685 47.2223 75.784 47.6643 75.615 48.076C75.446 48.4877 75.212 48.8517 74.913 49.168C74.6183 49.48 74.2738 49.7248 73.8795 49.9025C73.4895 50.0802 73.0691 50.169 72.6185 50.169ZM72.6185 48.817C72.9781 48.817 73.301 48.7217 73.587 48.531C73.873 48.3403 74.0983 48.089 74.263 47.777C74.432 47.4607 74.5165 47.1183 74.5165 46.75C74.5165 46.373 74.4298 46.0263 74.2565 45.71C74.0875 45.3937 73.86 45.1423 73.574 44.956C73.288 44.7653 72.9695 44.67 72.6185 44.67C72.2631 44.67 71.9403 44.7653 71.65 44.956C71.364 45.1467 71.1365 45.4002 70.9675 45.7165C70.8028 46.0328 70.7205 46.3773 70.7205 46.75C70.7205 47.1357 70.8071 47.4845 70.9805 47.7965C71.1538 48.1085 71.3835 48.3577 71.6695 48.544C71.9598 48.726 72.2761 48.817 72.6185 48.817ZM81.7649 50.169C81.1496 50.169 80.5711 50.0477 80.0294 49.805C79.4877 49.558 79.0111 49.22 78.5994 48.791C78.1921 48.3577 77.8714 47.855 77.6374 47.283C77.4077 46.711 77.2929 46.1 77.2929 45.45C77.2929 44.8 77.4077 44.189 77.6374 43.617C77.8714 43.045 78.1921 42.5445 78.5994 42.1155C79.0111 41.6822 79.4877 41.3442 80.0294 41.1015C80.5711 40.8545 81.1496 40.731 81.7649 40.731C82.5016 40.731 83.1797 40.9022 83.7994 41.2445C84.4191 41.5868 84.9326 42.0418 85.3399 42.6095L84.1374 43.253C83.8557 42.8977 83.5069 42.6138 83.0909 42.4015C82.6749 42.1892 82.2329 42.083 81.7649 42.083C81.3316 42.083 80.9264 42.1718 80.5494 42.3495C80.1724 42.5272 79.8409 42.7698 79.5549 43.0775C79.2689 43.3852 79.0457 43.7427 78.8854 44.15C78.7251 44.5573 78.6449 44.9907 78.6449 45.45C78.6449 45.9137 78.7251 46.3492 78.8854 46.7565C79.0457 47.1595 79.2689 47.517 79.5549 47.829C79.8452 48.1367 80.1789 48.3793 80.5559 48.557C80.9329 48.7303 81.3359 48.817 81.7649 48.817C82.2416 48.817 82.6857 48.7108 83.0974 48.4985C83.5134 48.2818 83.8601 47.9958 84.1374 47.6405L85.3399 48.297C84.9326 48.8647 84.4191 49.3197 83.7994 49.662C83.1797 50 82.5016 50.169 81.7649 50.169ZM89.6419 50.169C89.0439 50.169 88.4979 50.0152 88.0039 49.7075C87.5142 49.3998 87.122 48.9882 86.8274 48.4725C86.537 47.9525 86.3919 47.3783 86.3919 46.75C86.3919 46.2733 86.4764 45.8292 86.6454 45.4175C86.8144 45.0015 87.0462 44.6375 87.3409 44.3255C87.6399 44.0092 87.9865 43.7622 88.3809 43.5845C88.7752 43.4068 89.1955 43.318 89.6419 43.318C90.2399 43.318 90.7837 43.4718 91.2734 43.7795C91.7674 44.0872 92.1595 44.501 92.4499 45.021C92.7445 45.541 92.8919 46.1173 92.8919 46.75C92.8919 47.2223 92.8074 47.6643 92.6384 48.076C92.4694 48.4877 92.2354 48.8517 91.9364 49.168C91.6417 49.48 91.2972 49.7248 90.9029 49.9025C90.5129 50.0802 90.0925 50.169 89.6419 50.169ZM89.6419 48.817C90.0015 48.817 90.3244 48.7217 90.6104 48.531C90.8964 48.3403 91.1217 48.089 91.2864 47.777C91.4554 47.4607 91.5399 47.1183 91.5399 46.75C91.5399 46.373 91.4532 46.0263 91.2799 45.71C91.1109 45.3937 90.8834 45.1423 90.5974 44.956C90.3114 44.7653 89.9929 44.67 89.6419 44.67C89.2865 44.67 88.9637 44.7653 88.6734 44.956C88.3874 45.1467 88.1599 45.4002 87.9909 45.7165C87.8262 46.0328 87.7439 46.3773 87.7439 46.75C87.7439 47.1357 87.8305 47.4845 88.0039 47.7965C88.1772 48.1085 88.4069 48.3577 88.6929 48.544C88.9832 48.726 89.2995 48.817 89.6419 48.817ZM94.462 50V43.5H95.814V44.189C96.0394 43.9203 96.3145 43.708 96.6395 43.552C96.9689 43.396 97.3242 43.318 97.7055 43.318C98.1692 43.318 98.596 43.4307 98.986 43.656C99.376 43.877 99.6859 44.1717 99.9155 44.54C100.145 44.1717 100.451 43.877 100.832 43.656C101.218 43.4307 101.642 43.318 102.106 43.318C102.587 43.318 103.025 43.435 103.419 43.669C103.813 43.903 104.128 44.2172 104.362 44.6115C104.596 45.0058 104.713 45.4435 104.713 45.9245V50H103.361V46.269C103.361 45.983 103.291 45.7208 103.153 45.4825C103.014 45.2442 102.828 45.0513 102.594 44.904C102.36 44.7567 102.1 44.683 101.814 44.683C101.528 44.683 101.268 44.7523 101.034 44.891C100.8 45.0297 100.613 45.2182 100.475 45.4565C100.336 45.6948 100.267 45.9657 100.267 46.269V50H98.9145V46.269C98.9145 45.9657 98.8452 45.6948 98.7065 45.4565C98.5679 45.2182 98.3794 45.0297 98.141 44.891C97.907 44.7523 97.647 44.683 97.361 44.683C97.0794 44.683 96.8194 44.7567 96.581 44.904C96.347 45.0513 96.1607 45.2442 96.022 45.4825C95.8834 45.7208 95.814 45.983 95.814 46.269V50H94.462ZM106.535 50V43.5H107.887V44.189C108.112 43.9203 108.387 43.708 108.712 43.552C109.042 43.396 109.397 43.318 109.778 43.318C110.242 43.318 110.669 43.4307 111.059 43.656C111.449 43.877 111.759 44.1717 111.988 44.54C112.218 44.1717 112.523 43.877 112.905 43.656C113.29 43.4307 113.715 43.318 114.179 43.318C114.66 43.318 115.097 43.435 115.492 43.669C115.886 43.903 116.2 44.2172 116.434 44.6115C116.668 45.0058 116.785 45.4435 116.785 45.9245V50H115.433V46.269C115.433 45.983 115.364 45.7208 115.225 45.4825C115.087 45.2442 114.9 45.0513 114.666 44.904C114.432 44.7567 114.172 44.683 113.886 44.683C113.6 44.683 113.34 44.7523 113.106 44.891C112.872 45.0297 112.686 45.2182 112.547 45.4565C112.409 45.6948 112.339 45.9657 112.339 46.269V50H110.987V46.269C110.987 45.9657 110.918 45.6948 110.779 45.4565C110.641 45.2182 110.452 45.0297 110.214 44.891C109.98 44.7523 109.72 44.683 109.434 44.683C109.152 44.683 108.892 44.7567 108.654 44.904C108.42 45.0513 108.233 45.2442 108.095 45.4825C107.956 45.7208 107.887 45.983 107.887 46.269V50H106.535ZM121.341 50.169C120.743 50.169 120.197 50.0152 119.703 49.7075C119.213 49.3998 118.821 48.9882 118.526 48.4725C118.236 47.9525 118.091 47.3783 118.091 46.75C118.091 46.2733 118.175 45.8292 118.344 45.4175C118.513 45.0015 118.745 44.6375 119.04 44.3255C119.339 44.0092 119.685 43.7622 120.08 43.5845C120.474 43.4068 120.894 43.318 121.341 43.318C121.839 43.318 122.296 43.422 122.712 43.63C123.128 43.8337 123.483 44.1175 123.778 44.4815C124.073 44.8412 124.289 45.2572 124.428 45.7295C124.567 46.1975 124.608 46.6958 124.552 47.2245H119.54C119.596 47.5235 119.705 47.7943 119.865 48.037C120.03 48.2753 120.238 48.4638 120.489 48.6025C120.745 48.7412 121.029 48.8127 121.341 48.817C121.67 48.817 121.969 48.7347 122.238 48.57C122.511 48.4053 122.734 48.1778 122.907 47.8875L124.279 48.206C124.019 48.7823 123.626 49.2547 123.102 49.623C122.578 49.987 121.991 50.169 121.341 50.169ZM119.495 46.191H123.187C123.143 45.879 123.033 45.5973 122.855 45.346C122.682 45.0903 122.463 44.8888 122.199 44.7415C121.939 44.5898 121.653 44.514 121.341 44.514C121.033 44.514 120.747 44.5877 120.483 44.735C120.223 44.8823 120.006 45.0838 119.833 45.3395C119.664 45.5908 119.551 45.8747 119.495 46.191ZM126.148 50V43.5H127.5V44.189C127.725 43.9203 128.003 43.708 128.332 43.552C128.661 43.396 129.017 43.318 129.398 43.318C129.641 43.318 129.881 43.3505 130.12 43.4155L129.58 44.7805C129.411 44.7155 129.242 44.683 129.073 44.683C128.787 44.683 128.525 44.7545 128.287 44.8975C128.048 45.0362 127.858 45.2247 127.715 45.463C127.572 45.7013 127.5 45.9657 127.5 46.256V50H126.148ZM135.33 48.154L136.539 48.8105C136.245 49.2222 135.87 49.5515 135.415 49.7985C134.964 50.0455 134.475 50.169 133.946 50.169C133.348 50.169 132.802 50.0152 132.308 49.7075C131.818 49.3998 131.426 48.9882 131.131 48.4725C130.841 47.9525 130.696 47.3783 130.696 46.75C130.696 46.2733 130.78 45.8292 130.949 45.4175C131.118 45.0015 131.35 44.6375 131.645 44.3255C131.944 44.0092 132.291 43.7622 132.685 43.5845C133.079 43.4068 133.5 43.318 133.946 43.318C134.475 43.318 134.964 43.4415 135.415 43.6885C135.87 43.9355 136.245 44.267 136.539 44.683L135.33 45.3395C135.148 45.1228 134.936 44.9582 134.693 44.8455C134.451 44.7285 134.202 44.67 133.946 44.67C133.591 44.67 133.268 44.7675 132.977 44.9625C132.691 45.1532 132.464 45.4067 132.295 45.723C132.13 46.035 132.048 46.3773 132.048 46.75C132.048 47.1183 132.132 47.4607 132.301 47.777C132.47 48.089 132.698 48.3403 132.984 48.531C133.274 48.7217 133.595 48.817 133.946 48.817C134.215 48.817 134.47 48.7563 134.713 48.635C134.956 48.5137 135.161 48.3533 135.33 48.154ZM140.941 50.169C140.343 50.169 139.797 50.0152 139.303 49.7075C138.813 49.3998 138.421 48.9882 138.126 48.4725C137.836 47.9525 137.691 47.3783 137.691 46.75C137.691 46.2733 137.775 45.8292 137.944 45.4175C138.113 45.0015 138.345 44.6375 138.64 44.3255C138.939 44.0092 139.285 43.7622 139.68 43.5845C140.074 43.4068 140.494 43.318 140.941 43.318C141.439 43.318 141.896 43.422 142.312 43.63C142.728 43.8337 143.083 44.1175 143.378 44.4815C143.673 44.8412 143.889 45.2572 144.028 45.7295C144.167 46.1975 144.208 46.6958 144.152 47.2245H139.14C139.196 47.5235 139.305 47.7943 139.465 48.037C139.63 48.2753 139.838 48.4638 140.089 48.6025C140.345 48.7412 140.629 48.8127 140.941 48.817C141.27 48.817 141.569 48.7347 141.838 48.57C142.111 48.4053 142.334 48.1778 142.507 47.8875L143.879 48.206C143.619 48.7823 143.226 49.2547 142.702 49.623C142.178 49.987 141.591 50.169 140.941 50.169ZM139.095 46.191H142.787C142.743 45.879 142.633 45.5973 142.455 45.346C142.282 45.0903 142.063 44.8888 141.799 44.7415C141.539 44.5898 141.253 44.514 140.941 44.514C140.633 44.514 140.347 44.5877 140.083 44.735C139.823 44.8823 139.606 45.0838 139.433 45.3395C139.264 45.5908 139.151 45.8747 139.095 46.191ZM152.749 50.169C152.251 50.169 151.772 50.091 151.312 49.935C150.853 49.779 150.452 49.5558 150.11 49.2655C149.768 48.9708 149.523 48.622 149.375 48.219L150.643 47.7445C150.717 47.9525 150.857 48.1388 151.065 48.3035C151.278 48.4638 151.529 48.5895 151.819 48.6805C152.114 48.7715 152.424 48.817 152.749 48.817C153.096 48.817 153.421 48.7607 153.724 48.648C154.032 48.5353 154.279 48.3793 154.465 48.18C154.656 47.9807 154.751 47.7467 154.751 47.478C154.751 47.2007 154.651 46.9732 154.452 46.7955C154.257 46.6178 154.006 46.477 153.698 46.373C153.395 46.269 153.078 46.191 152.749 46.139C152.112 46.035 151.54 45.8833 151.033 45.684C150.53 45.4847 150.132 45.2052 149.837 44.8455C149.547 44.4858 149.401 44.0178 149.401 43.4415C149.401 42.8998 149.555 42.4275 149.863 42.0245C150.175 41.6215 150.584 41.3095 151.091 41.0885C151.603 40.8632 152.155 40.7505 152.749 40.7505C153.239 40.7505 153.711 40.8285 154.166 40.9845C154.625 41.1362 155.028 41.3593 155.375 41.654C155.726 41.9443 155.977 42.2975 156.129 42.7135L154.848 43.175C154.775 42.9627 154.634 42.7785 154.426 42.6225C154.218 42.4622 153.967 42.3365 153.672 42.2455C153.382 42.1545 153.074 42.109 152.749 42.109C152.402 42.1047 152.077 42.161 151.774 42.278C151.475 42.3907 151.23 42.5467 151.039 42.746C150.849 42.9453 150.753 43.1772 150.753 43.4415C150.753 43.7665 150.842 44.0135 151.02 44.1825C151.198 44.3515 151.436 44.4772 151.735 44.5595C152.038 44.6375 152.376 44.709 152.749 44.774C153.347 44.8693 153.899 45.0275 154.406 45.2485C154.918 45.4695 155.327 45.7642 155.635 46.1325C155.947 46.4965 156.103 46.945 156.103 47.478C156.103 48.0153 155.947 48.4877 155.635 48.895C155.327 49.298 154.918 49.6122 154.406 49.8375C153.899 50.0585 153.347 50.169 152.749 50.169ZM160.782 50.169C160.184 50.169 159.638 50.0152 159.144 49.7075C158.654 49.3998 158.262 48.9882 157.967 48.4725C157.677 47.9525 157.532 47.3783 157.532 46.75C157.532 46.2733 157.616 45.8292 157.785 45.4175C157.954 45.0015 158.186 44.6375 158.481 44.3255C158.78 44.0092 159.127 43.7622 159.521 43.5845C159.915 43.4068 160.336 43.318 160.782 43.318C161.38 43.318 161.924 43.4718 162.413 43.7795C162.907 44.0872 163.3 44.501 163.59 45.021C163.885 45.541 164.032 46.1173 164.032 46.75C164.032 47.2223 163.947 47.6643 163.778 48.076C163.609 48.4877 163.375 48.8517 163.076 49.168C162.782 49.48 162.437 49.7248 162.043 49.9025C161.653 50.0802 161.233 50.169 160.782 50.169ZM160.782 48.817C161.142 48.817 161.464 48.7217 161.75 48.531C162.036 48.3403 162.262 48.089 162.426 47.777C162.595 47.4607 162.68 47.1183 162.68 46.75C162.68 46.373 162.593 46.0263 162.42 45.71C162.251 45.3937 162.023 45.1423 161.737 44.956C161.451 44.7653 161.133 44.67 160.782 44.67C160.427 44.67 160.104 44.7653 159.813 44.956C159.527 45.1467 159.3 45.4002 159.131 45.7165C158.966 46.0328 158.884 46.3773 158.884 46.75C158.884 47.1357 158.971 47.4845 159.144 47.7965C159.317 48.1085 159.547 48.3577 159.833 48.544C160.123 48.726 160.44 48.817 160.782 48.817ZM165.513 50V40.25H166.865V50H165.513ZM168.68 47.5625V43.5H170.032V47.231C170.032 47.5213 170.104 47.7857 170.247 48.024C170.39 48.2623 170.581 48.453 170.819 48.596C171.057 48.7347 171.319 48.804 171.605 48.804C171.896 48.804 172.158 48.7347 172.392 48.596C172.63 48.453 172.819 48.2623 172.957 48.024C173.1 47.7857 173.172 47.5213 173.172 47.231V43.5H174.524L174.53 50H173.178L173.172 49.298C172.951 49.5667 172.676 49.779 172.346 49.935C172.017 50.091 171.664 50.169 171.287 50.169C170.806 50.169 170.368 50.052 169.974 49.818C169.58 49.584 169.265 49.2698 169.031 48.8755C168.797 48.4812 168.68 48.0435 168.68 47.5625ZM179.786 44.852H178.421L178.414 50H177.062L177.069 44.852H176.035V43.5H177.069L177.062 41.459H178.414L178.421 43.5H179.786V44.852ZM181.381 43.5H182.733V50H181.381V43.5ZM182.07 42.5575C181.862 42.5575 181.688 42.4903 181.55 42.356C181.411 42.2217 181.342 42.0527 181.342 41.849C181.342 41.6497 181.411 41.4828 181.55 41.3485C181.688 41.2098 181.86 41.1405 182.063 41.1405C182.263 41.1405 182.432 41.2098 182.57 41.3485C182.709 41.4828 182.778 41.6497 182.778 41.849C182.778 42.0527 182.709 42.2217 182.57 42.356C182.436 42.4903 182.269 42.5575 182.07 42.5575ZM187.554 50.169C186.956 50.169 186.41 50.0152 185.916 49.7075C185.426 49.3998 185.034 48.9882 184.739 48.4725C184.449 47.9525 184.304 47.3783 184.304 46.75C184.304 46.2733 184.388 45.8292 184.557 45.4175C184.726 45.0015 184.958 44.6375 185.253 44.3255C185.552 44.0092 185.898 43.7622 186.293 43.5845C186.687 43.4068 187.107 43.318 187.554 43.318C188.152 43.318 188.696 43.4718 189.185 43.7795C189.679 44.0872 190.071 44.501 190.362 45.021C190.656 45.541 190.804 46.1173 190.804 46.75C190.804 47.2223 190.719 47.6643 190.55 48.076C190.381 48.4877 190.147 48.8517 189.848 49.168C189.554 49.48 189.209 49.7248 188.815 49.9025C188.425 50.0802 188.004 50.169 187.554 50.169ZM187.554 48.817C187.913 48.817 188.236 48.7217 188.522 48.531C188.808 48.3403 189.034 48.089 189.198 47.777C189.367 47.4607 189.452 47.1183 189.452 46.75C189.452 46.373 189.365 46.0263 189.192 45.71C189.023 45.3937 188.795 45.1423 188.509 44.956C188.223 44.7653 187.905 44.67 187.554 44.67C187.198 44.67 186.876 44.7653 186.585 44.956C186.299 45.1467 186.072 45.4002 185.903 45.7165C185.738 46.0328 185.656 46.3773 185.656 46.75C185.656 47.1357 185.742 47.4845 185.916 47.7965C186.089 48.1085 186.319 48.3577 186.605 48.544C186.895 48.726 187.211 48.817 187.554 48.817ZM198.224 45.9245V50H196.872V46.256C196.872 45.9657 196.8 45.7013 196.657 45.463C196.519 45.2247 196.33 45.0362 196.092 44.8975C195.858 44.7545 195.594 44.683 195.299 44.683C195.013 44.683 194.751 44.7545 194.512 44.8975C194.274 45.0362 194.083 45.2247 193.94 45.463C193.797 45.7013 193.726 45.9657 193.726 46.256V50H192.374V43.5H193.726V44.189C193.951 43.9203 194.229 43.708 194.558 43.552C194.887 43.396 195.243 43.318 195.624 43.318C196.105 43.318 196.543 43.435 196.937 43.669C197.331 43.903 197.643 44.2172 197.873 44.6115C198.107 45.0058 198.224 45.4435 198.224 45.9245Z" fill="#A8C2FF"/>
<path d="M57.112 32.288C55.976 32.288 54.92 32.08 53.944 31.664C52.984 31.248 52.152 30.672 51.448 29.936C50.76 29.184 50.256 28.312 49.936 27.32L52.648 26.144C53.08 27.168 53.704 27.976 54.52 28.568C55.336 29.144 56.256 29.432 57.28 29.432C57.856 29.432 58.352 29.344 58.768 29.168C59.2 28.976 59.528 28.72 59.752 28.4C59.992 28.08 60.112 27.696 60.112 27.248C60.112 26.72 59.952 26.288 59.632 25.952C59.328 25.6 58.864 25.328 58.24 25.136L54.808 24.032C53.416 23.6 52.368 22.952 51.664 22.088C50.96 21.224 50.608 20.208 50.608 19.04C50.608 18.016 50.856 17.112 51.352 16.328C51.864 15.544 52.568 14.936 53.464 14.504C54.376 14.056 55.416 13.832 56.584 13.832C57.656 13.832 58.64 14.024 59.536 14.408C60.432 14.776 61.2 15.296 61.84 15.968C62.496 16.624 62.984 17.4 63.304 18.296L60.616 19.496C60.264 18.6 59.736 17.912 59.032 17.432C58.328 16.936 57.512 16.688 56.584 16.688C56.04 16.688 55.56 16.784 55.144 16.976C54.728 17.152 54.4 17.408 54.16 17.744C53.936 18.064 53.824 18.448 53.824 18.896C53.824 19.392 53.984 19.832 54.304 20.216C54.624 20.584 55.112 20.872 55.768 21.08L59.056 22.112C60.48 22.576 61.544 23.216 62.248 24.032C62.968 24.848 63.328 25.856 63.328 27.056C63.328 28.08 63.064 28.984 62.536 29.768C62.008 30.552 61.28 31.168 60.352 31.616C59.424 32.064 58.344 32.288 57.112 32.288ZM66.0031 32V13.832H69.1471V21.512L68.7151 21.056C69.0191 20.272 69.5151 19.68 70.2031 19.28C70.9071 18.864 71.7231 18.656 72.6511 18.656C73.6111 18.656 74.4591 18.864 75.1951 19.28C75.9471 19.696 76.5311 20.28 76.9471 21.032C77.3631 21.768 77.5711 22.624 77.5711 23.6V32H74.4271V24.344C74.4271 23.768 74.3151 23.272 74.0911 22.856C73.8671 22.44 73.5551 22.12 73.1551 21.896C72.7711 21.656 72.3151 21.536 71.7871 21.536C71.2751 21.536 70.8191 21.656 70.4191 21.896C70.0191 22.12 69.7071 22.44 69.4831 22.856C69.2591 23.272 69.1471 23.768 69.1471 24.344V32H66.0031ZM86.6136 32.288C85.3336 32.288 84.1656 31.992 83.1096 31.4C82.0696 30.808 81.2376 30 80.6136 28.976C80.0056 27.952 79.7016 26.784 79.7016 25.472C79.7016 24.16 80.0056 22.992 80.6136 21.968C81.2376 20.944 82.0696 20.136 83.1096 19.544C84.1496 18.952 85.3176 18.656 86.6136 18.656C87.8936 18.656 89.0536 18.952 90.0936 19.544C91.1336 20.136 91.9576 20.944 92.5656 21.968C93.1896 22.976 93.5016 24.144 93.5016 25.472C93.5016 26.784 93.1896 27.952 92.5656 28.976C91.9416 30 91.1096 30.808 90.0696 31.4C89.0296 31.992 87.8776 32.288 86.6136 32.288ZM86.6136 29.408C87.3176 29.408 87.9336 29.24 88.4616 28.904C89.0056 28.568 89.4296 28.104 89.7336 27.512C90.0536 26.904 90.2136 26.224 90.2136 25.472C90.2136 24.704 90.0536 24.032 89.7336 23.456C89.4296 22.864 89.0056 22.4 88.4616 22.064C87.9336 21.712 87.3176 21.536 86.6136 21.536C85.8936 21.536 85.2616 21.712 84.7176 22.064C84.1736 22.4 83.7416 22.864 83.4216 23.456C83.1176 24.032 82.9656 24.704 82.9656 25.472C82.9656 26.224 83.1176 26.904 83.4216 27.512C83.7416 28.104 84.1736 28.568 84.7176 28.904C85.2616 29.24 85.8936 29.408 86.6136 29.408ZM95.8859 36.8V18.944H98.8379V21.536L98.5499 20.888C98.9979 20.184 99.6059 19.64 100.374 19.256C101.142 18.856 102.03 18.656 103.038 18.656C104.27 18.656 105.382 18.96 106.374 19.568C107.366 20.176 108.15 20.992 108.726 22.016C109.318 23.04 109.614 24.192 109.614 25.472C109.614 26.736 109.326 27.888 108.75 28.928C108.174 29.968 107.39 30.792 106.398 31.4C105.406 31.992 104.278 32.288 103.014 32.288C102.07 32.288 101.198 32.104 100.398 31.736C99.6139 31.352 98.9899 30.808 98.5259 30.104L99.0299 29.48V36.8H95.8859ZM102.654 29.408C103.374 29.408 104.014 29.24 104.574 28.904C105.134 28.568 105.566 28.104 105.87 27.512C106.19 26.92 106.35 26.24 106.35 25.472C106.35 24.704 106.19 24.032 105.87 23.456C105.566 22.864 105.134 22.4 104.574 22.064C104.014 21.712 103.374 21.536 102.654 21.536C101.966 21.536 101.342 21.704 100.782 22.04C100.238 22.376 99.8059 22.848 99.4859 23.456C99.1819 24.048 99.0299 24.72 99.0299 25.472C99.0299 26.24 99.1819 26.92 99.4859 27.512C99.8059 28.104 100.238 28.568 100.782 28.904C101.342 29.24 101.966 29.408 102.654 29.408ZM112.275 32V14.12H119.811C120.995 14.12 122.003 14.328 122.835 14.744C123.683 15.144 124.331 15.72 124.779 16.472C125.243 17.208 125.475 18.104 125.475 19.16C125.475 19.976 125.251 20.744 124.803 21.464C124.371 22.168 123.675 22.752 122.715 23.216V21.704C123.595 22.04 124.291 22.456 124.803 22.952C125.315 23.448 125.675 24 125.883 24.608C126.091 25.216 126.195 25.856 126.195 26.528C126.195 28.24 125.627 29.584 124.491 30.56C123.371 31.52 121.811 32 119.811 32H112.275ZM115.539 29.12H120.147C120.995 29.12 121.667 28.888 122.163 28.424C122.675 27.944 122.931 27.312 122.931 26.528C122.931 25.744 122.675 25.112 122.163 24.632C121.667 24.152 120.995 23.912 120.147 23.912H115.539V29.12ZM115.539 21.056H119.979C120.651 21.056 121.187 20.864 121.587 20.48C121.987 20.08 122.187 19.568 122.187 18.944C122.187 18.32 121.987 17.824 121.587 17.456C121.187 17.088 120.651 16.904 119.979 16.904H115.539V21.056ZM133.261 32.288C132.253 32.288 131.373 32.064 130.621 31.616C129.885 31.168 129.317 30.544 128.917 29.744C128.533 28.944 128.341 28.008 128.341 26.936V18.944H131.485V26.672C131.485 27.216 131.589 27.696 131.797 28.112C132.021 28.512 132.333 28.832 132.733 29.072C133.149 29.296 133.613 29.408 134.125 29.408C134.637 29.408 135.093 29.296 135.493 29.072C135.893 28.832 136.205 28.504 136.429 28.088C136.653 27.672 136.765 27.176 136.765 26.6V18.944H139.909V32H136.933V29.432L137.197 29.888C136.893 30.688 136.389 31.288 135.685 31.688C134.997 32.088 134.189 32.288 133.261 32.288ZM142.831 32V18.944H145.975V32H142.831ZM142.831 17.48V14.12H145.975V17.48H142.831ZM148.878 32V13.832H152.022V32H148.878ZM160.997 32.288C159.733 32.288 158.605 31.992 157.613 31.4C156.621 30.792 155.837 29.968 155.261 28.928C154.685 27.888 154.397 26.736 154.397 25.472C154.397 24.192 154.685 23.04 155.261 22.016C155.837 20.992 156.621 20.176 157.613 19.568C158.621 18.96 159.741 18.656 160.973 18.656C161.965 18.656 162.845 18.856 163.613 19.256C164.397 19.64 165.013 20.184 165.461 20.888L164.981 21.536V13.832H168.125V32H165.149V29.48L165.485 30.104C165.037 30.808 164.413 31.352 163.613 31.736C162.813 32.104 161.941 32.288 160.997 32.288ZM161.333 29.408C162.053 29.408 162.685 29.24 163.229 28.904C163.773 28.568 164.197 28.104 164.501 27.512C164.821 26.92 164.981 26.24 164.981 25.472C164.981 24.72 164.821 24.048 164.501 23.456C164.197 22.848 163.773 22.376 163.229 22.04C162.685 21.704 162.053 21.536 161.333 21.536C160.629 21.536 159.997 21.712 159.437 22.064C158.877 22.4 158.437 22.864 158.117 23.456C157.813 24.032 157.661 24.704 157.661 25.472C157.661 26.24 157.813 26.92 158.117 27.512C158.437 28.104 158.877 28.568 159.437 28.904C159.997 29.24 160.629 29.408 161.333 29.408ZM177.242 32.288C175.898 32.288 174.722 31.984 173.714 31.376C172.706 30.768 171.922 29.944 171.362 28.904C170.802 27.864 170.522 26.712 170.522 25.448C170.522 24.136 170.802 22.976 171.362 21.968C171.938 20.944 172.714 20.136 173.69 19.544C174.682 18.952 175.786 18.656 177.002 18.656C178.026 18.656 178.922 18.824 179.69 19.16C180.474 19.496 181.138 19.96 181.682 20.552C182.226 21.144 182.642 21.824 182.93 22.592C183.218 23.344 183.362 24.16 183.362 25.04C183.362 25.264 183.346 25.496 183.314 25.736C183.298 25.976 183.258 26.184 183.194 26.36H173.114V23.96H181.418L179.93 25.088C180.074 24.352 180.034 23.696 179.81 23.12C179.602 22.544 179.25 22.088 178.754 21.752C178.274 21.416 177.69 21.248 177.002 21.248C176.346 21.248 175.762 21.416 175.25 21.752C174.738 22.072 174.346 22.552 174.074 23.192C173.818 23.816 173.722 24.576 173.786 25.472C173.722 26.272 173.826 26.984 174.098 27.608C174.386 28.216 174.802 28.688 175.346 29.024C175.906 29.36 176.546 29.528 177.266 29.528C177.986 29.528 178.594 29.376 179.09 29.072C179.602 28.768 180.002 28.36 180.29 27.848L182.834 29.096C182.578 29.72 182.178 30.272 181.634 30.752C181.09 31.232 180.442 31.608 179.69 31.88C178.954 32.152 178.138 32.288 177.242 32.288ZM185.745 32V18.944H188.697V21.848L188.457 21.416C188.761 20.44 189.233 19.76 189.873 19.376C190.529 18.992 191.313 18.8 192.225 18.8H192.993V21.584H191.865C190.969 21.584 190.249 21.864 189.705 22.424C189.161 22.968 188.889 23.736 188.889 24.728V32H185.745Z" fill="white"/>
<path d="M37.7802 51.0003H4.0838C3.0103 51.0031 1.9791 50.5822 1.21438 49.8292C0.449668 49.0761 0.0132497 48.0519 0 46.979L5.92453 15.422C5.92453 14.7438 6.19338 14.0933 6.67223 13.6128C7.15108 13.1323 7.8009 12.8611 8.47943 12.8584H34.1189C34.4557 12.8584 34.7892 12.9247 35.1004 13.0535C35.4116 13.1824 35.6944 13.3712 35.9326 13.6093C36.1707 13.8473 36.3597 14.1299 36.4886 14.4409C36.6175 14.752 36.6838 15.0853 36.6838 15.422L41.864 46.9288C41.864 47.4643 41.7583 47.9946 41.553 48.4892C41.3476 48.9839 41.0466 49.4331 40.6673 49.8114C40.2879 50.1896 39.8377 50.4893 39.3423 50.6933C38.8468 50.8973 38.316 51.0016 37.7802 51.0003Z" fill="white"/>
<path d="M12.3227 19.624C13.2559 19.624 14.0125 18.8678 14.0125 17.935C14.0125 17.0023 13.2559 16.2461 12.3227 16.2461C11.3894 16.2461 10.6328 17.0023 10.6328 17.935C10.6328 18.8678 11.3894 19.624 12.3227 19.624Z" fill="white"/>
<path d="M29.5414 19.624C30.4747 19.624 31.2313 18.8678 31.2313 17.935C31.2313 17.0023 30.4747 16.2461 29.5414 16.2461C28.6081 16.2461 27.8516 17.0023 27.8516 17.935C27.8516 18.8678 28.6081 19.624 29.5414 19.624Z" fill="white"/>
<path fill-rule="evenodd" clip-rule="evenodd" d="M20.9324 1.06564C18.7902 1.06564 16.7357 1.91616 15.221 3.43009C13.7063 4.94402 12.8553 6.99736 12.8553 9.13838V17.6736C12.8553 17.9678 12.6166 18.2064 12.3222 18.2064C12.0277 18.2064 11.7891 17.9678 11.7891 17.6736V9.13838C11.7891 6.71473 12.7524 4.39035 14.4671 2.67657C16.1818 0.962791 18.5074 0 20.9324 0C23.3573 0 25.6829 0.962791 27.3976 2.67657C29.1123 4.39035 30.0757 6.71473 30.0757 9.13838V17.6736C30.0757 17.9678 29.837 18.2064 29.5425 18.2064C29.2481 18.2064 29.0094 17.9678 29.0094 17.6736V9.13838C29.0094 6.99736 28.1585 4.94402 26.6437 3.43009C25.129 1.91616 23.0745 1.06564 20.9324 1.06564Z" fill="white"/>
<g filter="url(#filter0_d_12_342)">
<path d="M24.8658 41.8816C24.7421 41.561 24.5261 41.2843 24.2452 41.0863C23.9643 40.8882 23.6309 40.7778 23.2873 40.7689C22.9436 40.76 22.605 40.8531 22.3142 41.0363C22.0234 41.2196 21.7934 41.4848 21.6533 41.7986C21.5132 42.1123 21.4691 42.4605 21.5268 42.7992C21.5845 43.138 21.7412 43.452 21.9773 43.7018C22.2133 43.9516 22.5181 44.1259 22.8532 44.2027C23.1882 44.2796 23.5386 44.2555 23.86 44.1335C24.2846 43.9587 24.6258 43.6275 24.813 43.2084C25.0002 42.7893 25.0191 42.3143 24.8658 41.8816ZM31.9069 39.3281C31.79 38.9986 31.5782 38.7111 31.2981 38.5019C31.0179 38.2926 30.6821 38.171 30.3328 38.1523C29.9836 38.1336 29.6367 38.2187 29.3358 38.3969C29.0349 38.5751 28.7936 38.8384 28.6423 39.1535C28.4909 39.4686 28.4364 39.8214 28.4855 40.1675C28.5346 40.5136 28.6851 40.8374 28.9181 41.098C29.1511 41.3587 29.4562 41.5445 29.7948 41.6321C30.1333 41.7196 30.4903 41.705 30.8205 41.59C31.2638 41.4329 31.6269 41.1068 31.8305 40.683C32.034 40.2592 32.0615 39.7721 31.9069 39.3281ZM32.5204 33.5073C32.1382 30.8934 31.7258 28.2896 31.3235 25.6758C31.3016 25.5015 31.2433 25.3336 31.1525 25.1832C31.0157 24.9857 30.8127 24.8437 30.5802 24.7828C30.3478 24.7219 30.1012 24.7463 29.8851 24.8514C25.1911 26.5404 20.5171 28.2394 15.8634 29.9484L15.6622 30.0188C15.6386 30.034 15.6117 30.0435 15.5838 30.0465C15.5559 30.0496 15.5276 30.0461 15.5013 30.0364C15.4749 30.0266 15.4512 30.0109 15.432 29.9904C15.4128 29.9699 15.3986 29.9452 15.3906 29.9183L14.8072 28.8426C14.6894 28.5649 14.517 28.3137 14.3003 28.1039C14.0835 27.8941 13.8268 27.7299 13.5454 27.6211C13.2639 27.5124 12.9635 27.4612 12.6619 27.4707C12.3603 27.4802 12.0636 27.5501 11.7896 27.6764C11.2867 27.8473 10.7837 28.0484 10.2909 28.2092C10.0445 28.2652 9.82539 28.4052 9.67118 28.6052C9.51697 28.8052 9.43732 29.0527 9.44595 29.305L9.61694 29.7876C9.76881 29.9898 9.98599 30.1333 10.2316 30.1938C10.4773 30.2543 10.7363 30.2279 10.9648 30.1193L12.5038 29.5563C12.8357 29.4357 12.886 29.4659 13.0469 29.7775C13.7712 31.1246 14.4954 32.4617 15.2095 33.7988L15.7829 34.8041L16.2556 34.6332C16.4361 34.5682 16.6272 34.5375 16.8189 34.5427C17.2006 34.5452 17.5692 34.6814 17.8607 34.9277C18.1521 35.1739 18.3478 35.5146 18.4137 35.8903C18.4795 36.2661 18.4113 36.653 18.221 36.9836C18.0306 37.3142 17.7302 37.5675 17.3721 37.6995C17.513 37.9809 17.6638 38.2524 17.8147 38.5339C18.1195 39.1776 18.6595 39.6802 19.3237 39.9383C19.9879 40.1963 20.7257 40.1902 21.3855 39.9212L30.5992 36.5735C30.8331 36.4867 31.0587 36.3791 31.2732 36.2518C31.7361 35.9758 32.1036 35.5651 32.3265 35.0746C32.5494 34.5841 32.6171 34.0372 32.5204 33.5073Z" fill="#3B69FE"/>
</g>
<path opacity="0.5" fill-rule="evenodd" clip-rule="evenodd" d="M13.4377 33.2585C13.5697 33.6211 13.3825 34.022 13.0196 34.1539L6.60223 36.4862C6.23939 36.6181 5.83828 36.431 5.70634 36.0684C5.5744 35.7057 5.76158 35.3048 6.12442 35.1729L12.5418 32.8406C12.9047 32.7087 13.3058 32.8958 13.4377 33.2585Z" fill="#0144E4"/>
<path opacity="0.5" fill-rule="evenodd" clip-rule="evenodd" d="M15.5445 40.2856C15.6765 40.6482 15.4895 41.0491 15.1267 41.1811L10.54 42.85C10.1772 42.982 9.776 42.795 9.64393 42.4324C9.51186 42.0698 9.6989 41.6689 10.0617 41.5369L14.6484 39.868C15.0112 39.736 15.4124 39.923 15.5445 40.2856Z" fill="#0144E4"/>
<path d="M12.1696 38.6043C12.0265 38.6028 11.8873 38.5577 11.7704 38.4751C11.6536 38.3925 11.5648 38.2762 11.5157 38.1419C11.4822 38.0562 11.4663 37.9647 11.469 37.8727C11.4718 37.7808 11.493 37.6904 11.5315 37.6068C11.57 37.5233 11.625 37.4484 11.6931 37.3866C11.7613 37.3248 11.8412 37.2773 11.9281 37.2471L16.5652 35.5582C16.7399 35.4875 16.9356 35.4892 17.1091 35.5627C17.2827 35.6362 17.4199 35.7756 17.4906 35.9503C17.5613 36.1249 17.5597 36.3205 17.4861 36.4939C17.4125 36.6674 17.273 36.8045 17.0983 36.8752L12.4613 38.5541C12.3688 38.5916 12.2693 38.6087 12.1696 38.6043Z" fill="#0142DF"/>
<defs>
<filter id="filter0_d_12_342" x="9.44531" y="24.75" width="23.5782" height="19.9566" filterUnits="userSpaceOnUse" color-interpolation-filters="sRGB">
<feFlood flood-opacity="0" result="BackgroundImageFix"/>
<feColorMatrix in="SourceAlpha" type="matrix" values="0 0 0 0 0 0 0 0 0 0 0 0 0 0 0 0 0 0 127 0" result="hardAlpha"/>
<feOffset dx="0.46" dy="0.46"/>
<feColorMatrix type="matrix" values="0 0 0 0 0 0 0 0 0 0 0 0 0 0 0 0 0 0 0.25 0"/>
<feBlend mode="normal" in2="BackgroundImageFix" result="effect1_dropShadow_12_342"/>
<feBlend mode="normal" in="SourceGraphic" in2="effect1_dropShadow_12_342" result="shape"/>
</filter>
</defs>
</svg>
